<svg width="168" height="18" viewBox="0 0 168 18" fill="none" xmlns="http://www.w3.org/2000/svg">
<path d="M2.03265 6.21547H13.568V1.98895L2.03265 6.21547Z" fill="#ADBDC4"/>
<path d="M13.5681 1.98895V16.9061L19.0054 0L13.5681 1.98895Z" fill="#79858E"/>
<path d="M13.568 6.21547H9.19781L13.568 16.9061V6.21547Z" fill="#ADBDC4"/>
<path d="M2.03265 6.21547L10.3158 8.95028L9.19781 6.21547H2.03265Z" fill="#91A1AA"/>
<path d="M28.4573 12.9779C28.4065 13.0276 28.3049 13.1271 28.1524 13.2265C28 13.326 27.7967 13.4254 27.5935 13.5249C27.3394 13.6243 27.0853 13.674 26.7296 13.7735C26.3739 13.8232 26.0181 13.8729 25.5608 13.8729C24.6969 13.8729 23.9855 13.7238 23.3249 13.4751C22.7151 13.2265 22.2069 12.8287 21.8004 12.3315C21.3938 11.8342 21.0889 11.2873 20.8856 10.6409C20.6824 9.99447 20.5807 9.24861 20.5807 8.50276C20.5807 7.70718 20.6824 7.01104 20.8856 6.31491C21.0889 5.6685 21.3938 5.07182 21.8004 4.57458C22.2069 4.07734 22.7151 3.72927 23.3249 3.43093C23.9347 3.18231 24.6461 3.03314 25.51 3.03314C25.9165 3.03314 26.2722 3.08287 26.6279 3.13259C26.9837 3.18231 27.2377 3.28176 27.4918 3.38121C27.7459 3.48066 27.9492 3.5801 28.1016 3.67955C28.2541 3.779 28.4065 3.87845 28.4573 3.92817C28.559 4.02762 28.6098 4.12706 28.7114 4.22651C28.7622 4.32596 28.8131 4.47513 28.8131 4.57458C28.8131 4.77347 28.7114 4.97237 28.559 5.17126C28.4065 5.37016 28.2033 5.56905 28.0508 5.76795L27.6443 5.37016C27.4918 5.22099 27.2886 5.12154 27.1361 5.02209C26.9328 4.92265 26.7296 4.8232 26.4755 4.77347C26.2214 4.72375 25.9673 4.67403 25.6624 4.67403C25.1034 4.67403 24.6969 4.77347 24.2904 4.97237C23.9347 5.17126 23.6298 5.46961 23.4265 5.81767C23.2232 6.16574 23.0708 6.56353 22.9691 6.96132C22.8675 7.40883 22.8167 7.85635 22.8167 8.30386C22.8167 8.8011 22.8675 9.24861 22.9691 9.69613C23.0708 10.1436 23.2232 10.5414 23.4773 10.8895C23.7314 11.2376 24.0363 11.4862 24.392 11.6851C24.7477 11.884 25.2559 11.9834 25.8149 11.9834C26.1198 11.9834 26.3739 11.9337 26.6279 11.884C26.882 11.8342 27.0853 11.7348 27.2886 11.6354C27.4918 11.5359 27.6443 11.4365 27.7967 11.2873C27.9492 11.1878 28.0508 11.0884 28.1524 10.9889C28.2033 11.0387 28.3049 11.1381 28.3557 11.2376C28.4573 11.337 28.5082 11.4365 28.6098 11.5856C28.6606 11.6851 28.7622 11.8342 28.8131 11.9337C28.8639 12.0331 28.9147 12.1326 28.9147 12.232C28.9147 12.3812 28.8639 12.4807 28.8131 12.5801C28.6606 12.779 28.559 12.8784 28.4573 12.9779ZM36.588 11.8342C36.588 12.6298 36.6896 13.2265 36.9437 13.6243C36.7405 13.674 36.588 13.7735 36.4356 13.7735C36.2831 13.8232 36.0798 13.8232 35.9274 13.8232C35.5209 13.8232 35.2668 13.7735 35.0635 13.6243C34.8602 13.4751 34.7586 13.2762 34.7078 12.9779C34.4537 13.2265 34.1488 13.4254 33.7931 13.5746C33.3866 13.7237 32.9292 13.8232 32.3702 13.8232C32.0653 13.8232 31.8112 13.7735 31.5063 13.7238C31.2014 13.6243 30.9474 13.5249 30.7441 13.326C30.49 13.1271 30.3376 12.9282 30.1851 12.6298C30.0327 12.3315 29.9818 11.9834 29.9818 11.5359C29.9818 10.9889 30.1343 10.5912 30.3884 10.2431C30.6425 9.89502 30.9982 9.6464 31.3539 9.44751C31.7604 9.24861 32.167 9.14916 32.6243 9.04972C33.0817 8.99999 33.4882 8.95027 33.8947 8.90055H34.6062V8.6022C34.6062 8.20441 34.5045 7.90607 34.3013 7.7569C34.098 7.60773 33.7423 7.50828 33.2341 7.50828C32.7768 7.50828 32.3702 7.558 32.0145 7.70717C31.6588 7.85635 31.3031 8.00552 30.9982 8.20441C30.8457 8.00552 30.7441 7.85635 30.6425 7.60773C30.5408 7.40883 30.49 7.25966 30.49 7.11049C30.49 6.96132 30.5916 6.81215 30.7441 6.7127C30.8965 6.56353 31.1506 6.46408 31.4047 6.36463C31.7096 6.26519 32.0145 6.16574 32.3702 6.11602C32.7259 6.06629 33.1325 6.01657 33.539 6.01657C34.098 6.01657 34.6062 6.06629 35.0127 6.16574C35.4192 6.26519 35.7241 6.46408 35.9782 6.7127C36.2323 6.96132 36.3847 7.25966 36.4864 7.60773C36.588 7.95579 36.6388 8.40331 36.6388 8.85082L36.588 11.8342ZM34.5553 9.99447H34.1488C33.8947 9.99447 33.6406 10.0442 33.3866 10.0939C33.1325 10.1436 32.8784 10.1934 32.6751 10.2928C32.4719 10.3923 32.3194 10.5414 32.167 10.6906C32.0145 10.8398 31.9637 11.0884 31.9637 11.337C31.9637 11.6354 32.0653 11.884 32.2178 12.0829C32.3702 12.2818 32.6751 12.3812 33.0817 12.3812C33.2849 12.3812 33.4882 12.3315 33.6406 12.2818C33.8439 12.232 33.9964 12.1823 34.098 12.0829C34.2504 11.9834 34.3521 11.9337 34.4029 11.8342C34.5045 11.7348 34.5045 11.6354 34.5045 11.5856L34.5553 9.99447ZM40.5517 6.96132C40.7042 6.76242 41.0091 6.56353 41.3648 6.36463C41.7205 6.16574 42.1778 6.06629 42.7368 6.06629C43.1434 6.06629 43.4991 6.11602 43.8548 6.26519C44.2105 6.41436 44.5154 6.61325 44.8203 6.91159C45.0744 7.20994 45.3285 7.60773 45.4809 8.05524C45.6334 8.55248 45.735 9.09944 45.735 9.79557C45.735 10.5912 45.6334 11.2873 45.4301 11.7845C45.2268 12.3315 44.9728 12.7293 44.6679 13.0276C44.363 13.326 44.0072 13.5249 43.6515 13.674C43.2958 13.8232 42.8893 13.8729 42.5336 13.8729C42.2287 13.8729 41.9746 13.8232 41.7205 13.7735C41.5172 13.7238 41.314 13.6243 41.1615 13.5249C41.0091 13.4254 40.8566 13.3757 40.8058 13.2762L40.6533 13.1271V16.9061H38.4682V6.26519C38.519 6.26519 38.5699 6.26519 38.6715 6.21546H39.1797C39.5354 6.21546 39.8403 6.26519 40.0944 6.36463C40.3484 6.46408 40.5009 6.66298 40.5517 6.96132ZM43.3974 9.8453C43.3974 9.54695 43.3466 9.24861 43.2958 8.95027C43.245 8.70165 43.1434 8.45303 43.0417 8.25414C42.9401 8.05524 42.7368 7.90607 42.5336 7.80662C42.3303 7.70718 42.0762 7.65745 41.7713 7.65745C41.314 7.65745 41.0091 7.7569 40.8566 7.90607C40.7042 8.05524 40.6025 8.25414 40.6025 8.45303V11.7348C40.7042 11.8342 40.8566 11.9337 41.0599 12.0331C41.2631 12.1326 41.5172 12.1823 41.8221 12.1823C42.3811 12.1823 42.7368 11.9834 42.9909 11.5359C43.2958 11.1381 43.3974 10.5912 43.3974 9.8453ZM47.3611 12.4807C47.3103 12.2818 47.2595 12.0331 47.2087 11.8342C47.2087 11.5856 47.1579 11.3867 47.1579 11.1381V3.92817C47.2087 3.92817 47.3103 3.92817 47.412 3.87845H47.9201C48.0726 3.87845 48.2759 3.87845 48.4283 3.92817C48.5808 3.97789 48.7332 4.02762 48.8856 4.12706C49.0381 4.22651 49.1397 4.32596 49.2414 4.52486C49.343 4.67403 49.3938 4.87292 49.3938 5.17126V6.26519H51.6298V7.85635H49.3938V11.1878C49.3938 11.9337 49.6987 12.2818 50.3085 12.2818C50.461 12.2818 50.6134 12.2818 50.7151 12.232C50.8675 12.1823 50.9691 12.1326 51.0708 12.0829C51.1724 12.0331 51.274 11.9834 51.3249 11.884C51.3757 11.7845 51.4773 11.7845 51.4773 11.7348C51.6298 11.9834 51.7822 12.1823 51.833 12.3315C51.9347 12.4807 51.9855 12.6796 51.9855 12.779C51.9855 12.9282 51.9347 13.0276 51.833 13.1768C51.7314 13.326 51.5789 13.4254 51.3757 13.5249C51.1724 13.6243 50.9183 13.7238 50.6642 13.7735C50.3593 13.8232 50.0544 13.8729 49.7495 13.8729C49.0889 13.8729 48.5807 13.7238 48.225 13.4751C47.7677 13.2265 47.5136 12.9282 47.3611 12.4807ZM57.0163 12.2818C57.2704 12.2818 57.5245 12.232 57.7278 12.1823C57.931 12.1326 58.1343 12.0331 58.2867 11.9834C58.4392 11.884 58.5916 11.8342 58.6933 11.7348C58.7949 11.6354 58.8965 11.5359 58.9982 11.4862C59.1506 11.6354 59.2523 11.8342 59.4047 12.0829C59.5572 12.3315 59.608 12.5304 59.608 12.6796C59.608 12.9282 59.4555 13.1271 59.2014 13.326C58.9982 13.4751 58.6425 13.6243 58.2359 13.7735C57.8294 13.8729 57.372 13.9724 56.8131 13.9724C56.3049 13.9724 55.8475 13.9226 55.3394 13.7735C54.882 13.6243 54.4247 13.4254 54.069 13.1271C53.7132 12.8287 53.4083 12.3812 53.1543 11.884C52.9002 11.337 52.7985 10.6906 52.7985 9.89502C52.7985 9.24861 52.9002 8.70165 53.1034 8.20441C53.3067 7.7569 53.5608 7.35911 53.9165 7.01104C54.2722 6.7127 54.6279 6.46408 55.0853 6.31491C55.5426 6.16574 55.9492 6.11602 56.4065 6.11602C57.0163 6.11602 57.5245 6.21546 57.931 6.36463C58.3376 6.56353 58.6933 6.81215 58.9474 7.11049C59.2014 7.40883 59.4047 7.7569 59.5063 8.15469C59.608 8.55248 59.6588 8.95027 59.6588 9.39778V10.2928H54.9837C55.0345 10.8398 55.1869 11.337 55.5426 11.7348C55.8475 12.0829 56.3557 12.2818 57.0163 12.2818ZM57.7786 9.14916C57.7786 8.65193 57.6769 8.25414 57.4737 7.95579C57.2704 7.65745 56.9147 7.50828 56.4065 7.50828C55.9492 7.50828 55.6443 7.65745 55.3394 7.95579C55.0853 8.25414 54.9328 8.65193 54.9328 9.19889L57.7786 9.14916ZM63.47 6.96132C63.5209 6.86187 63.6225 6.76242 63.7241 6.66298C63.8258 6.56353 63.9782 6.46408 64.1307 6.36463C64.2831 6.26519 64.4356 6.21546 64.6388 6.11602C64.8421 6.06629 65.0454 6.01657 65.2486 6.01657C65.4011 6.01657 65.5027 6.01657 65.6552 6.06629C65.8076 6.06629 65.9092 6.11601 66.0617 6.16574C66.1633 6.21546 66.265 6.31491 66.3666 6.41436C66.4174 6.5138 66.4682 6.61325 66.4682 6.76242C66.4682 7.01104 66.4174 7.25966 66.3158 7.558C66.2141 7.85635 66.0617 8.10497 65.9601 8.30386C65.7568 8.15469 65.6043 8.05524 65.4011 7.95579C65.1978 7.85635 64.9945 7.85635 64.7405 7.85635C64.4356 7.85635 64.1307 7.95579 63.9274 8.15469C63.7241 8.35358 63.5717 8.55248 63.5717 8.8011V13.8232H61.3866V6.26519C61.4374 6.26519 61.4882 6.26519 61.5898 6.21546H62.098C62.4537 6.21546 62.7078 6.26519 62.9619 6.41436C63.2668 6.5138 63.4192 6.7127 63.47 6.96132ZM69.6189 6.96132C69.6697 6.86187 69.7713 6.76242 69.8729 6.66298C69.9746 6.56353 70.127 6.46408 70.2795 6.36463C70.4319 6.26519 70.5844 6.21546 70.7876 6.11602C70.9909 6.06629 71.1942 6.01657 71.3974 6.01657C71.5499 6.01657 71.6515 6.01657 71.804 6.06629C71.9564 6.06629 72.0581 6.11601 72.2105 6.16574C72.3121 6.21546 72.4138 6.31491 72.5154 6.41436C72.5662 6.5138 72.617 6.61325 72.617 6.76242C72.617 7.01104 72.5662 7.25966 72.4646 7.558C72.363 7.85635 72.2105 8.10497 72.1089 8.30386C71.9056 8.15469 71.7532 8.05524 71.5499 7.95579C71.3466 7.85635 71.1434 7.85635 70.8893 7.85635C70.5844 7.85635 70.2795 7.95579 70.0762 8.15469C69.8729 8.35358 69.7205 8.55248 69.7205 8.8011V13.8232H67.5354V6.26519C67.5862 6.26519 67.637 6.26519 67.7386 6.21546H68.2468C68.6025 6.21546 68.8566 6.26519 69.1107 6.41436C69.4156 6.5138 69.568 6.7127 69.6189 6.96132ZM79.9347 11.8342C79.9347 12.6298 80.0363 13.2265 80.2904 13.6243C80.0871 13.674 79.9347 13.7735 79.7822 13.7735C79.6298 13.8232 79.4265 13.8232 79.274 13.8232C78.8675 13.8232 78.6134 13.7735 78.4102 13.6243C78.2069 13.4751 78.1053 13.2762 78.0544 12.9779C77.8004 13.2265 77.4955 13.4254 77.1397 13.5746C76.7332 13.7237 76.2758 13.8232 75.7169 13.8232C75.412 13.8232 75.1579 13.7735 74.853 13.7238C74.5481 13.6243 74.294 13.5249 74.0907 13.326C73.8367 13.1271 73.6842 12.9282 73.5317 12.6298C73.3793 12.3315 73.3285 11.9834 73.3285 11.5359C73.3285 10.9889 73.4809 10.5912 73.735 10.2431C73.9891 9.89502 74.3448 9.6464 74.7005 9.44751C75.1071 9.24861 75.5136 9.14916 75.9709 9.04972C76.4283 8.99999 76.8348 8.95027 77.2414 8.90055H77.9528V8.6022C77.9528 8.20441 77.8512 7.90607 77.6479 7.7569C77.4446 7.60773 77.0889 7.50828 76.5807 7.50828C76.1234 7.50828 75.7169 7.558 75.3611 7.70717C75.0054 7.85635 74.6497 8.00552 74.3448 8.20441C74.1924 8.00552 74.0907 7.85635 73.9891 7.60773C73.8875 7.40883 73.8367 7.25966 73.8367 7.11049C73.8367 6.96132 73.9383 6.81215 74.0907 6.7127C74.2432 6.56353 74.4973 6.46408 74.7514 6.36463C75.0563 6.26519 75.3611 6.16574 75.7169 6.11602C76.0726 6.06629 76.4791 6.01657 76.8857 6.01657C77.4446 6.01657 77.9528 6.06629 78.3593 6.16574C78.7659 6.26519 79.0708 6.46408 79.3249 6.7127C79.5789 6.96132 79.7314 7.25966 79.833 7.60773C79.9347 7.95579 79.9855 8.40331 79.9855 8.85082L79.9347 11.8342ZM77.902 9.99447H77.4954C77.2414 9.99447 76.9873 10.0442 76.7332 10.0939C76.4791 10.1436 76.225 10.1934 76.0218 10.2928C75.8185 10.3923 75.6661 10.5414 75.5136 10.6906C75.3612 10.8398 75.3103 11.0884 75.3103 11.337C75.3103 11.6354 75.412 11.884 75.5644 12.0829C75.7169 12.2818 76.0218 12.3812 76.4283 12.3812C76.6316 12.3812 76.8348 12.3315 76.9873 12.2818C77.1905 12.232 77.343 12.1823 77.4446 12.0829C77.5971 11.9834 77.6987 11.9337 77.7495 11.8342C77.8512 11.7348 77.8512 11.6354 77.8512 11.5856L77.902 9.99447Z" fill="#79858E"/>
<path d="M94.3666 4.8232L93.0454 7.45856L90.098 7.85635C89.5898 7.9558 89.3357 8.55248 89.7423 8.95027L91.8766 10.9889L91.3684 13.8729C91.2668 14.3702 91.8258 14.768 92.2831 14.5193L94.9256 13.1768L97.568 14.5193C98.0254 14.768 98.5844 14.3702 98.4827 13.8729L97.9746 10.9889L100.109 8.95027C100.515 8.6022 100.261 7.9558 99.7532 7.85635L96.8058 7.45856L95.5354 4.8232C95.2813 4.32596 94.6207 4.32596 94.3666 4.8232ZM110.679 4.8232L109.358 7.45856L106.41 7.85635C105.902 7.9558 105.648 8.55248 106.054 8.95027L108.189 10.9889L107.681 13.8729C107.579 14.3702 108.138 14.768 108.595 14.5193L111.238 13.1768L113.88 14.5193C114.338 14.768 114.897 14.3702 114.795 13.8729L114.287 10.9889L116.421 8.95027C116.828 8.6022 116.573 7.9558 116.065 7.85635L113.118 7.45856L111.797 4.8232C111.593 4.32596 110.933 4.32596 110.679 4.8232ZM126.686 4.8232L125.365 7.45856L122.417 7.85635C121.909 7.9558 121.655 8.55248 122.062 8.95027L124.196 10.9889L123.688 13.8729C123.586 14.3702 124.145 14.768 124.603 14.5193L127.245 13.1768L129.887 14.5193C130.345 14.768 130.904 14.3702 130.802 13.8729L130.294 10.9889L132.428 8.95027C132.835 8.6022 132.581 7.9558 132.073 7.85635L129.125 7.45856L127.804 4.8232C127.601 4.32596 126.889 4.32596 126.686 4.8232ZM142.998 4.8232L141.677 7.45856L138.73 7.85635C138.221 7.9558 137.967 8.55248 138.374 8.95027L140.508 10.9889L140 13.8729C139.898 14.3702 140.457 14.768 140.915 14.5193L143.557 13.1768L146.2 14.5193C146.657 14.768 147.216 14.3702 147.114 13.8729L146.606 10.9889L148.74 8.95027C149.147 8.6022 148.893 7.9558 148.385 7.85635L145.437 7.45856L144.116 4.8232C143.913 4.32596 143.252 4.32596 142.998 4.8232ZM158.955 4.8232L157.633 7.45856L154.686 7.85635C154.178 7.9558 153.924 8.55248 154.33 8.95027L156.465 10.9889L155.956 13.8729C155.855 14.3702 156.414 14.768 156.871 14.5193L159.514 13.1768L162.156 14.5193C162.613 14.768 163.172 14.3702 163.071 13.8729L162.563 10.9889L164.697 8.95027C165.103 8.6022 164.849 7.9558 164.341 7.85635L161.394 7.45856L160.073 4.8232C159.869 4.32596 159.209 4.32596 158.955 4.8232Z" fill="#79858E"/>
</svg>
