<svg width="85" height="18" viewBox="0 0 85 18" fill="none" xmlns="http://www.w3.org/2000/svg">
<g clip-path="url(#clip0_10_44)">
<path d="M7.47106 7.24309V8.91091H11.3467C11.2066 9.86395 10.9264 10.5311 10.4595 11.0076C9.89916 11.5794 9.01197 12.2465 7.47106 12.2465C5.08966 12.2465 3.1752 10.2928 3.1752 7.81491C3.1752 5.33701 5.04296 3.38329 7.47106 3.38329C8.7785 3.38329 9.71239 3.90746 10.4128 4.57458L11.5802 3.38329C10.5996 2.43025 9.29214 1.71547 7.51776 1.71547C4.24916 1.71547 1.44751 4.43163 1.44751 7.81491C1.44751 11.1982 4.20247 13.8667 7.47106 13.8667C9.24544 13.8667 10.5996 13.2949 11.6268 12.1512C12.7008 11.0552 13.0277 9.48273 13.0277 8.24378C13.0277 7.86257 12.981 7.48135 12.9343 7.19544H7.47106V7.24309ZM17.9306 5.86119C15.7826 5.86119 14.0549 7.529 14.0549 9.76864C14.0549 12.0083 15.7826 13.6761 17.9306 13.6761C20.0785 13.6761 21.8062 12.0083 21.8062 9.76864C21.8062 7.529 20.0785 5.86119 17.9306 5.86119ZM17.9306 12.1989C16.7632 12.1989 15.7359 11.1982 15.7359 9.8163C15.7359 8.38674 16.7632 7.4337 17.9306 7.4337C19.0979 7.4337 20.1252 8.38674 20.1252 9.8163C20.1252 11.1982 19.0979 12.1989 17.9306 12.1989ZM36.8884 6.76657C36.4682 6.29005 35.7211 5.90884 34.8339 5.90884C32.9194 5.90884 31.2384 7.62431 31.2384 9.8163C31.2384 12.0083 32.9194 13.7238 34.8339 13.7238C35.7678 13.7238 36.4682 13.2949 36.8417 12.8184H36.8884V13.3425C36.8884 14.8674 36.0946 15.6298 34.8339 15.6298C33.8066 15.6298 33.1529 14.8674 32.8727 14.2479L31.3785 14.8674C31.7987 15.9157 32.9194 17.2023 34.7872 17.2023C36.7483 17.2023 38.4293 16.011 38.4293 13.1043V6.09945H36.8884V6.76657ZM34.9273 12.1989C33.7599 12.1989 32.8727 11.1982 32.8727 9.8163C32.8727 8.43439 33.7599 7.4337 34.9273 7.4337C36.0946 7.4337 36.9818 8.43439 36.9818 9.8163C36.9818 11.1982 36.0946 12.1989 34.9273 12.1989ZM26.569 5.86119C24.4211 5.86119 22.6934 7.529 22.6934 9.76864C22.6934 12.0083 24.4211 13.6761 26.569 13.6761C28.7169 13.6761 30.4446 12.0083 30.4446 9.76864C30.3979 7.529 28.6702 5.86119 26.569 5.86119ZM26.569 12.1989C25.4016 12.1989 24.3744 11.1982 24.3744 9.8163C24.3744 8.38674 25.4016 7.4337 26.569 7.4337C27.7364 7.4337 28.7636 8.38674 28.7636 9.8163C28.7169 11.1982 27.7364 12.1989 26.569 12.1989ZM39.7835 1.85843H41.4645V13.7238H39.7835V1.85843ZM46.6008 12.1989C45.7603 12.1989 45.1066 11.8177 44.733 11.0076L49.8694 8.81561L49.6826 8.38674C49.3558 7.529 48.3752 5.86119 46.3673 5.86119C44.4062 5.86119 42.7252 7.4337 42.7252 9.76864C42.7252 11.9606 44.3595 13.6761 46.5541 13.6761C48.3285 13.6761 49.3558 12.5801 49.776 11.9606L48.4686 11.0552C48.0483 11.77 47.488 12.1989 46.6008 12.1989ZM46.5074 7.3384C47.2078 7.3384 47.7682 7.71961 47.9549 8.19613L44.4529 9.67334C44.4529 8.05317 45.6202 7.3384 46.5074 7.3384Z" fill="#79858E"/>
<path d="M77.2789 16.0587H61.3562C57.9942 16.0587 55.2859 13.2949 55.2859 9.86395V8.10083C55.2859 4.66989 57.9942 1.90608 61.3562 1.90608H77.2789C80.6409 1.90608 83.3492 4.66989 83.3492 8.10083V9.86395C83.3492 13.2949 80.6409 16.0587 77.2789 16.0587Z" fill="#676767"/>
<path d="M75.6913 6.05179L74.8975 7.67196L73.1698 7.91022C72.843 7.95787 72.7496 8.33908 72.9364 8.57734L74.1971 9.81629L73.9169 11.5794C73.8702 11.913 74.1971 12.1512 74.4773 12.0083L76.0182 11.1505L77.5591 12.0083C77.8393 12.1512 78.1661 11.913 78.1194 11.5794L77.8392 9.81629L79.1 8.57734C79.3335 8.33908 79.1934 7.95787 78.8665 7.91022L77.1388 7.67196L76.345 6.05179C76.2516 5.76588 75.8314 5.76588 75.6913 6.05179Z" fill="white"/>
<path d="M63.7376 10.1022V10.8646H63.0372V11.913H62.1033V10.8646H59.8153V10.1499L62.2434 6.57597H62.9905V10.1022H63.7376ZM60.7025 10.1022H62.1033V8.05318L60.7025 10.1022ZM64.8116 10.817H65.8389V11.8653H64.8116V10.817ZM70.6017 9.62569C70.7884 9.86395 70.8818 10.1499 70.8818 10.4358C70.8818 10.7217 70.7884 11.0076 70.6484 11.2459C70.4616 11.4841 70.2748 11.6271 69.948 11.77C69.6678 11.913 69.2942 11.9606 68.9207 11.9606C68.5471 11.9606 68.1736 11.913 67.8934 11.77C67.6132 11.6271 67.3798 11.4841 67.193 11.2459C67.0062 11.0076 66.9595 10.7693 66.9595 10.4358C66.9595 10.1022 67.0529 9.8163 67.2397 9.62569C67.4265 9.38743 67.7066 9.24448 68.0335 9.14917C67.7533 9.05387 67.5198 8.91091 67.3331 8.67266C67.1463 8.4344 67.0996 8.19614 67.0996 7.91022C67.0996 7.62431 67.193 7.38605 67.3331 7.14779C67.4732 6.90953 67.7066 6.76658 67.9868 6.62362C68.267 6.52832 68.5938 6.43301 68.9207 6.43301C69.2942 6.43301 69.5744 6.48067 69.8546 6.62362C70.1347 6.71893 70.3682 6.90953 70.5083 7.14779C70.6484 7.38605 70.7418 7.62431 70.7418 7.91022C70.7418 8.19614 70.6484 8.4344 70.5083 8.67266C70.3215 8.91091 70.088 9.05387 69.8079 9.14917C70.1347 9.24448 70.4149 9.38743 70.6017 9.62569ZM69.7145 10.9599C69.9013 10.817 69.9946 10.6264 69.9946 10.3405C69.9946 10.1022 69.9013 9.9116 69.7145 9.76865C69.5277 9.62569 69.2475 9.53039 68.9207 9.48274C68.5938 9.53039 68.3603 9.62569 68.1269 9.76865C67.9401 9.9116 67.8467 10.1022 67.8467 10.3405C67.8467 10.5787 67.9401 10.817 68.1269 10.9599C68.3137 11.1029 68.5938 11.1506 68.9207 11.1506C69.2475 11.1982 69.5277 11.1029 69.7145 10.9599ZM68.2203 7.4337C68.0335 7.57666 67.9868 7.76727 67.9868 8.00553C67.9868 8.24379 68.0802 8.4344 68.2203 8.57735C68.407 8.72031 68.5938 8.81561 68.9207 8.86326C69.2008 8.81561 69.4343 8.72031 69.6211 8.57735C69.8079 8.4344 69.8546 8.24379 69.8546 8.00553C69.8546 7.76727 69.7612 7.57666 69.6211 7.4337C69.4343 7.29075 69.2475 7.2431 68.9207 7.2431C68.6405 7.2431 68.407 7.29075 68.2203 7.4337Z" fill="white" stroke="white" stroke-width="0.5" stroke-miterlimit="10"/>
</g>
<defs>
<clipPath id="clip0_10_44">
<rect width="84.75" height="17.25" fill="white"/>
</clipPath>
</defs>
</svg>
